<mxfile host="app.diagrams.net" modified="2024-01-23T11:53:41.302Z" agent="Mozilla/5.0 (Windows NT 10.0; Win64; x64) AppleWebKit/537.36 (KHTML, like Gecko) Chrome/120.0.0.0 Safari/537.36" etag="yLN48duj4i8HR6NQQYy4" version="22.1.18" type="device">
  <diagram id="R2lEEEUBdFMjLlhIrx00" name="Page-1">
    <mxGraphModel dx="1581" dy="970" grid="1" gridSize="10" guides="0" tooltips="1" connect="1" arrows="1" fold="1" page="1" pageScale="1" pageWidth="291" pageHeight="413" math="0" shadow="0" extFonts="Permanent Marker^https://fonts.googleapis.com/css?family=Permanent+Marker">
      <root>
        <mxCell id="0" />
        <mxCell id="1" parent="0" />
        <mxCell id="6Lz6aEb2j4bTtcunXrUy-1" value="Registro de alumnos" style="whiteSpace=wrap;html=1;align=center;" parent="1" vertex="1">
          <mxGeometry x="50" y="-270" width="100" height="40" as="geometry" />
        </mxCell>
        <mxCell id="6Lz6aEb2j4bTtcunXrUy-2" value="Alumnos" style="whiteSpace=wrap;html=1;align=center;" parent="1" vertex="1">
          <mxGeometry x="50" y="-110" width="100" height="40" as="geometry" />
        </mxCell>
        <mxCell id="6Lz6aEb2j4bTtcunXrUy-3" value="Estudios" style="whiteSpace=wrap;html=1;align=center;" parent="1" vertex="1">
          <mxGeometry x="-50" y="260" width="100" height="40" as="geometry" />
        </mxCell>
        <mxCell id="6Lz6aEb2j4bTtcunXrUy-4" value="Empresa" style="whiteSpace=wrap;html=1;align=center;" parent="1" vertex="1">
          <mxGeometry x="510" y="70" width="100" height="40" as="geometry" />
        </mxCell>
        <mxCell id="6Lz6aEb2j4bTtcunXrUy-6" value="Histórico" style="whiteSpace=wrap;html=1;align=center;" parent="1" vertex="1">
          <mxGeometry x="360" y="-150" width="100" height="40" as="geometry" />
        </mxCell>
        <mxCell id="6Lz6aEb2j4bTtcunXrUy-7" value="provee" style="shape=rhombus;perimeter=rhombusPerimeter;whiteSpace=wrap;html=1;align=center;" parent="1" vertex="1">
          <mxGeometry x="70" y="-180" width="60" height="30" as="geometry" />
        </mxCell>
        <mxCell id="6Lz6aEb2j4bTtcunXrUy-20" value="" style="endArrow=none;html=1;rounded=0;entryX=0.5;entryY=1;entryDx=0;entryDy=0;exitX=0.5;exitY=0;exitDx=0;exitDy=0;" parent="1" source="6Lz6aEb2j4bTtcunXrUy-2" target="6Lz6aEb2j4bTtcunXrUy-7" edge="1">
          <mxGeometry relative="1" as="geometry">
            <mxPoint x="-120" y="90" as="sourcePoint" />
            <mxPoint x="40" y="90" as="targetPoint" />
          </mxGeometry>
        </mxCell>
        <mxCell id="6Lz6aEb2j4bTtcunXrUy-21" value="" style="endArrow=none;html=1;rounded=0;entryX=0.5;entryY=1;entryDx=0;entryDy=0;exitX=0.5;exitY=0;exitDx=0;exitDy=0;" parent="1" source="6Lz6aEb2j4bTtcunXrUy-7" target="6Lz6aEb2j4bTtcunXrUy-1" edge="1">
          <mxGeometry relative="1" as="geometry">
            <mxPoint x="-195" y="-30" as="sourcePoint" />
            <mxPoint x="-35" y="-30" as="targetPoint" />
          </mxGeometry>
        </mxCell>
        <mxCell id="6Lz6aEb2j4bTtcunXrUy-22" value="tienen" style="shape=rhombus;perimeter=rhombusPerimeter;whiteSpace=wrap;html=1;align=center;" parent="1" vertex="1">
          <mxGeometry x="-30" y="60" width="60" height="30" as="geometry" />
        </mxCell>
        <mxCell id="6Lz6aEb2j4bTtcunXrUy-23" value="" style="endArrow=none;html=1;rounded=0;exitX=0.5;exitY=1;exitDx=0;exitDy=0;entryX=0.5;entryY=0;entryDx=0;entryDy=0;" parent="1" source="6Lz6aEb2j4bTtcunXrUy-22" target="6Lz6aEb2j4bTtcunXrUy-3" edge="1">
          <mxGeometry relative="1" as="geometry">
            <mxPoint x="-220" y="220" as="sourcePoint" />
            <mxPoint x="-60" y="220" as="targetPoint" />
          </mxGeometry>
        </mxCell>
        <mxCell id="6Lz6aEb2j4bTtcunXrUy-24" value="" style="endArrow=none;html=1;rounded=0;entryX=0.5;entryY=0;entryDx=0;entryDy=0;exitX=0;exitY=0.5;exitDx=0;exitDy=0;" parent="1" source="6Lz6aEb2j4bTtcunXrUy-2" target="6Lz6aEb2j4bTtcunXrUy-22" edge="1">
          <mxGeometry relative="1" as="geometry">
            <mxPoint x="80" y="-40" as="sourcePoint" />
            <mxPoint x="100" y="150" as="targetPoint" />
            <Array as="points">
              <mxPoint y="-90" />
            </Array>
          </mxGeometry>
        </mxCell>
        <mxCell id="6Lz6aEb2j4bTtcunXrUy-27" value="solicita" style="shape=rhombus;perimeter=rhombusPerimeter;whiteSpace=wrap;html=1;align=center;" parent="1" vertex="1">
          <mxGeometry x="400" y="70" width="60" height="40" as="geometry" />
        </mxCell>
        <mxCell id="6Lz6aEb2j4bTtcunXrUy-30" value="" style="endArrow=none;html=1;rounded=0;exitX=1;exitY=0.5;exitDx=0;exitDy=0;entryX=0.5;entryY=1;entryDx=0;entryDy=0;" parent="1" source="BJOTVDsz-TMSOWQ9wBwJ-4" target="BJOTVDsz-TMSOWQ9wBwJ-5" edge="1">
          <mxGeometry relative="1" as="geometry">
            <mxPoint x="240" y="269.5" as="sourcePoint" />
            <mxPoint x="580" y="220" as="targetPoint" />
            <Array as="points">
              <mxPoint x="590" y="280" />
            </Array>
          </mxGeometry>
        </mxCell>
        <mxCell id="6Lz6aEb2j4bTtcunXrUy-33" value="gestionan / &lt;br&gt;consultan" style="shape=rhombus;perimeter=rhombusPerimeter;whiteSpace=wrap;html=1;align=center;" parent="1" vertex="1">
          <mxGeometry x="470" y="150" width="100" height="50" as="geometry" />
        </mxCell>
        <mxCell id="6Lz6aEb2j4bTtcunXrUy-36" value="se archivan" style="shape=rhombus;perimeter=rhombusPerimeter;whiteSpace=wrap;html=1;align=center;" parent="1" vertex="1">
          <mxGeometry x="600" y="-60" width="80" height="40" as="geometry" />
        </mxCell>
        <mxCell id="6Lz6aEb2j4bTtcunXrUy-38" value="" style="endArrow=none;html=1;rounded=0;exitX=0.5;exitY=0;exitDx=0;exitDy=0;entryX=1;entryY=0.5;entryDx=0;entryDy=0;" parent="1" source="6Lz6aEb2j4bTtcunXrUy-36" target="6Lz6aEb2j4bTtcunXrUy-6" edge="1">
          <mxGeometry relative="1" as="geometry">
            <mxPoint x="360" as="sourcePoint" />
            <mxPoint x="520" as="targetPoint" />
            <Array as="points">
              <mxPoint x="640" y="-130" />
            </Array>
          </mxGeometry>
        </mxCell>
        <mxCell id="6Lz6aEb2j4bTtcunXrUy-42" value="Petición FCT" style="whiteSpace=wrap;html=1;align=center;" parent="1" vertex="1">
          <mxGeometry x="250" y="70" width="100" height="40" as="geometry" />
        </mxCell>
        <mxCell id="6Lz6aEb2j4bTtcunXrUy-43" value="Tutores" style="whiteSpace=wrap;html=1;align=center;" parent="1" vertex="1">
          <mxGeometry x="250" y="200" width="100" height="40" as="geometry" />
        </mxCell>
        <mxCell id="BJOTVDsz-TMSOWQ9wBwJ-4" value="Solicitud de empleo" style="whiteSpace=wrap;html=1;align=center;" parent="1" vertex="1">
          <mxGeometry x="350" y="260" width="100" height="40" as="geometry" />
        </mxCell>
        <mxCell id="BJOTVDsz-TMSOWQ9wBwJ-5" value="realiza" style="shape=rhombus;perimeter=rhombusPerimeter;whiteSpace=wrap;html=1;align=center;" parent="1" vertex="1">
          <mxGeometry x="560" y="200" width="60" height="30" as="geometry" />
        </mxCell>
        <mxCell id="BJOTVDsz-TMSOWQ9wBwJ-7" value="" style="endArrow=none;html=1;rounded=0;entryX=0.75;entryY=1;entryDx=0;entryDy=0;exitX=0.5;exitY=0;exitDx=0;exitDy=0;" parent="1" source="BJOTVDsz-TMSOWQ9wBwJ-5" target="6Lz6aEb2j4bTtcunXrUy-4" edge="1">
          <mxGeometry relative="1" as="geometry">
            <mxPoint x="490" y="140" as="sourcePoint" />
            <mxPoint x="650" y="140" as="targetPoint" />
          </mxGeometry>
        </mxCell>
        <mxCell id="BJOTVDsz-TMSOWQ9wBwJ-8" value="busca" style="shape=rhombus;perimeter=rhombusPerimeter;whiteSpace=wrap;html=1;align=center;" parent="1" vertex="1">
          <mxGeometry x="170" y="270" width="60" height="30" as="geometry" />
        </mxCell>
        <mxCell id="BJOTVDsz-TMSOWQ9wBwJ-9" value="" style="endArrow=none;html=1;rounded=0;exitX=1;exitY=0.5;exitDx=0;exitDy=0;entryX=0;entryY=0.5;entryDx=0;entryDy=0;" parent="1" source="BJOTVDsz-TMSOWQ9wBwJ-8" target="BJOTVDsz-TMSOWQ9wBwJ-4" edge="1">
          <mxGeometry relative="1" as="geometry">
            <mxPoint x="240" y="220" as="sourcePoint" />
            <mxPoint x="400" y="220" as="targetPoint" />
          </mxGeometry>
        </mxCell>
        <mxCell id="BJOTVDsz-TMSOWQ9wBwJ-10" value="" style="endArrow=none;html=1;rounded=0;exitX=1;exitY=0.5;exitDx=0;exitDy=0;entryX=0;entryY=0.5;entryDx=0;entryDy=0;" parent="1" source="6Lz6aEb2j4bTtcunXrUy-3" target="BJOTVDsz-TMSOWQ9wBwJ-8" edge="1">
          <mxGeometry relative="1" as="geometry">
            <mxPoint x="160" y="200" as="sourcePoint" />
            <mxPoint x="320" y="200" as="targetPoint" />
          </mxGeometry>
        </mxCell>
        <mxCell id="BJOTVDsz-TMSOWQ9wBwJ-12" value="se archivan" style="shape=rhombus;perimeter=rhombusPerimeter;whiteSpace=wrap;html=1;align=center;" parent="1" vertex="1">
          <mxGeometry x="200" y="-150" width="80" height="40" as="geometry" />
        </mxCell>
        <mxCell id="BJOTVDsz-TMSOWQ9wBwJ-14" value="" style="endArrow=none;html=1;rounded=0;exitX=1;exitY=0.5;exitDx=0;exitDy=0;entryX=0;entryY=0.5;entryDx=0;entryDy=0;" parent="1" source="BJOTVDsz-TMSOWQ9wBwJ-12" target="6Lz6aEb2j4bTtcunXrUy-6" edge="1">
          <mxGeometry relative="1" as="geometry">
            <mxPoint x="230" y="50" as="sourcePoint" />
            <mxPoint x="390" y="50" as="targetPoint" />
          </mxGeometry>
        </mxCell>
        <mxCell id="BJOTVDsz-TMSOWQ9wBwJ-17" value="" style="endArrow=none;html=1;rounded=0;entryX=0;entryY=0.5;entryDx=0;entryDy=0;exitX=1;exitY=0.5;exitDx=0;exitDy=0;" parent="1" source="6Lz6aEb2j4bTtcunXrUy-27" target="6Lz6aEb2j4bTtcunXrUy-4" edge="1">
          <mxGeometry relative="1" as="geometry">
            <mxPoint x="170" y="-30" as="sourcePoint" />
            <mxPoint x="330" y="-30" as="targetPoint" />
          </mxGeometry>
        </mxCell>
        <mxCell id="BJOTVDsz-TMSOWQ9wBwJ-18" value="" style="endArrow=none;html=1;rounded=0;entryX=0;entryY=0.5;entryDx=0;entryDy=0;exitX=1;exitY=0.5;exitDx=0;exitDy=0;" parent="1" source="6Lz6aEb2j4bTtcunXrUy-42" target="6Lz6aEb2j4bTtcunXrUy-27" edge="1">
          <mxGeometry relative="1" as="geometry">
            <mxPoint x="100" y="-30" as="sourcePoint" />
            <mxPoint x="260" y="-30" as="targetPoint" />
          </mxGeometry>
        </mxCell>
        <mxCell id="BJOTVDsz-TMSOWQ9wBwJ-19" value="solicita" style="shape=rhombus;perimeter=rhombusPerimeter;whiteSpace=wrap;html=1;align=center;" parent="1" vertex="1">
          <mxGeometry x="110" y="-10" width="60" height="30" as="geometry" />
        </mxCell>
        <mxCell id="BJOTVDsz-TMSOWQ9wBwJ-21" value="" style="endArrow=none;html=1;rounded=0;exitX=0.5;exitY=1;exitDx=0;exitDy=0;entryX=0;entryY=0.5;entryDx=0;entryDy=0;" parent="1" source="BJOTVDsz-TMSOWQ9wBwJ-19" target="6Lz6aEb2j4bTtcunXrUy-42" edge="1">
          <mxGeometry relative="1" as="geometry">
            <mxPoint x="100" y="-30" as="sourcePoint" />
            <mxPoint x="260" y="-30" as="targetPoint" />
            <Array as="points">
              <mxPoint x="140" y="90" />
            </Array>
          </mxGeometry>
        </mxCell>
        <mxCell id="BJOTVDsz-TMSOWQ9wBwJ-22" value="" style="endArrow=none;html=1;rounded=0;entryX=0.5;entryY=0;entryDx=0;entryDy=0;exitX=0.5;exitY=1;exitDx=0;exitDy=0;" parent="1" source="BJOTVDsz-TMSOWQ9wBwJ-23" target="6Lz6aEb2j4bTtcunXrUy-43" edge="1">
          <mxGeometry relative="1" as="geometry">
            <mxPoint x="410" y="180" as="sourcePoint" />
            <mxPoint x="340" y="150" as="targetPoint" />
          </mxGeometry>
        </mxCell>
        <mxCell id="BJOTVDsz-TMSOWQ9wBwJ-23" value="consulta" style="shape=rhombus;perimeter=rhombusPerimeter;whiteSpace=wrap;html=1;align=center;" parent="1" vertex="1">
          <mxGeometry x="270" y="140" width="60" height="30" as="geometry" />
        </mxCell>
        <mxCell id="BJOTVDsz-TMSOWQ9wBwJ-24" value="" style="endArrow=none;html=1;rounded=0;entryX=0.5;entryY=0;entryDx=0;entryDy=0;exitX=0.5;exitY=1;exitDx=0;exitDy=0;" parent="1" source="6Lz6aEb2j4bTtcunXrUy-42" target="BJOTVDsz-TMSOWQ9wBwJ-23" edge="1">
          <mxGeometry relative="1" as="geometry">
            <mxPoint x="110" y="-30" as="sourcePoint" />
            <mxPoint x="270" y="-30" as="targetPoint" />
          </mxGeometry>
        </mxCell>
        <mxCell id="uvMHpVlc2OdN53Bl67iu-1" value="gestionan / &lt;br&gt;consultan" style="shape=rhombus;perimeter=rhombusPerimeter;whiteSpace=wrap;html=1;align=center;" vertex="1" parent="1">
          <mxGeometry x="50" y="100" width="100" height="50" as="geometry" />
        </mxCell>
        <mxCell id="uvMHpVlc2OdN53Bl67iu-3" value="" style="endArrow=none;html=1;rounded=0;exitX=0.5;exitY=1;exitDx=0;exitDy=0;entryX=0;entryY=0.5;entryDx=0;entryDy=0;" edge="1" parent="1" source="uvMHpVlc2OdN53Bl67iu-1" target="6Lz6aEb2j4bTtcunXrUy-43">
          <mxGeometry relative="1" as="geometry">
            <mxPoint x="80" y="115" as="sourcePoint" />
            <mxPoint x="200" y="110" as="targetPoint" />
            <Array as="points">
              <mxPoint x="100" y="220" />
            </Array>
          </mxGeometry>
        </mxCell>
        <mxCell id="uvMHpVlc2OdN53Bl67iu-4" value="" style="endArrow=none;html=1;rounded=0;exitX=0.5;exitY=0;exitDx=0;exitDy=0;entryX=0.5;entryY=1;entryDx=0;entryDy=0;" edge="1" parent="1" source="uvMHpVlc2OdN53Bl67iu-1" target="6Lz6aEb2j4bTtcunXrUy-2">
          <mxGeometry relative="1" as="geometry">
            <mxPoint x="80" y="145" as="sourcePoint" />
            <mxPoint x="200" y="140" as="targetPoint" />
          </mxGeometry>
        </mxCell>
        <mxCell id="uvMHpVlc2OdN53Bl67iu-5" value="" style="endArrow=none;html=1;rounded=0;exitX=1;exitY=0.5;exitDx=0;exitDy=0;entryX=0.5;entryY=1;entryDx=0;entryDy=0;" edge="1" parent="1" source="6Lz6aEb2j4bTtcunXrUy-43" target="6Lz6aEb2j4bTtcunXrUy-33">
          <mxGeometry relative="1" as="geometry">
            <mxPoint x="260" y="315" as="sourcePoint" />
            <mxPoint x="380" y="310" as="targetPoint" />
            <Array as="points">
              <mxPoint x="520" y="220" />
            </Array>
          </mxGeometry>
        </mxCell>
        <mxCell id="uvMHpVlc2OdN53Bl67iu-9" value="" style="endArrow=none;html=1;rounded=0;entryX=0.5;entryY=0;entryDx=0;entryDy=0;exitX=0.114;exitY=1.01;exitDx=0;exitDy=0;exitPerimeter=0;" edge="1" parent="1" source="6Lz6aEb2j4bTtcunXrUy-4" target="6Lz6aEb2j4bTtcunXrUy-33">
          <mxGeometry relative="1" as="geometry">
            <mxPoint x="440" y="110" as="sourcePoint" />
            <mxPoint x="520" y="110" as="targetPoint" />
          </mxGeometry>
        </mxCell>
        <mxCell id="uvMHpVlc2OdN53Bl67iu-10" value="" style="endArrow=none;html=1;rounded=0;entryX=0;entryY=0.5;entryDx=0;entryDy=0;exitX=0.75;exitY=0;exitDx=0;exitDy=0;" edge="1" parent="1" source="6Lz6aEb2j4bTtcunXrUy-2" target="BJOTVDsz-TMSOWQ9wBwJ-12">
          <mxGeometry relative="1" as="geometry">
            <mxPoint x="110" y="-100" as="sourcePoint" />
            <mxPoint x="110" y="-140" as="targetPoint" />
            <Array as="points">
              <mxPoint x="125" y="-130" />
            </Array>
          </mxGeometry>
        </mxCell>
        <mxCell id="uvMHpVlc2OdN53Bl67iu-11" value="" style="endArrow=none;html=1;rounded=0;entryX=0.5;entryY=1;entryDx=0;entryDy=0;exitX=1;exitY=0.5;exitDx=0;exitDy=0;" edge="1" parent="1" source="6Lz6aEb2j4bTtcunXrUy-4" target="6Lz6aEb2j4bTtcunXrUy-36">
          <mxGeometry relative="1" as="geometry">
            <mxPoint x="560" y="60" as="sourcePoint" />
            <mxPoint x="520" y="110" as="targetPoint" />
            <Array as="points">
              <mxPoint x="640" y="90" />
            </Array>
          </mxGeometry>
        </mxCell>
        <mxCell id="uvMHpVlc2OdN53Bl67iu-12" value="Relación FCT" style="whiteSpace=wrap;html=1;align=center;" vertex="1" parent="1">
          <mxGeometry x="290" y="-80" width="100" height="40" as="geometry" />
        </mxCell>
        <mxCell id="uvMHpVlc2OdN53Bl67iu-13" value="Relación Laboral" style="whiteSpace=wrap;html=1;align=center;" vertex="1" parent="1">
          <mxGeometry x="290" y="-20" width="100" height="40" as="geometry" />
        </mxCell>
        <mxCell id="uvMHpVlc2OdN53Bl67iu-14" value="" style="endArrow=none;html=1;rounded=0;entryX=0.5;entryY=0;entryDx=0;entryDy=0;exitX=0.898;exitY=1.01;exitDx=0;exitDy=0;exitPerimeter=0;" edge="1" parent="1" source="6Lz6aEb2j4bTtcunXrUy-2" target="BJOTVDsz-TMSOWQ9wBwJ-19">
          <mxGeometry relative="1" as="geometry">
            <mxPoint x="160" y="-90" as="sourcePoint" />
            <mxPoint x="250" y="-90" as="targetPoint" />
          </mxGeometry>
        </mxCell>
        <mxCell id="uvMHpVlc2OdN53Bl67iu-17" value="" style="endArrow=none;html=1;rounded=0;entryX=0.5;entryY=1;entryDx=0;entryDy=0;exitX=0.25;exitY=0;exitDx=0;exitDy=0;" edge="1" parent="1" source="6Lz6aEb2j4bTtcunXrUy-4" target="uvMHpVlc2OdN53Bl67iu-13">
          <mxGeometry relative="1" as="geometry">
            <mxPoint x="570" y="80" as="sourcePoint" />
            <mxPoint x="570" y="10" as="targetPoint" />
            <Array as="points">
              <mxPoint x="535" y="50" />
              <mxPoint x="340" y="50" />
            </Array>
          </mxGeometry>
        </mxCell>
        <mxCell id="uvMHpVlc2OdN53Bl67iu-18" value="" style="endArrow=none;html=1;rounded=0;exitX=1;exitY=0.5;exitDx=0;exitDy=0;entryX=0.75;entryY=0;entryDx=0;entryDy=0;" edge="1" parent="1" source="uvMHpVlc2OdN53Bl67iu-12" target="6Lz6aEb2j4bTtcunXrUy-4">
          <mxGeometry relative="1" as="geometry">
            <mxPoint x="410" y="-60" as="sourcePoint" />
            <mxPoint x="490" y="-60" as="targetPoint" />
            <Array as="points">
              <mxPoint x="585" y="-60" />
            </Array>
          </mxGeometry>
        </mxCell>
        <mxCell id="uvMHpVlc2OdN53Bl67iu-20" value="" style="endArrow=none;html=1;rounded=0;entryX=0;entryY=0.5;entryDx=0;entryDy=0;exitX=1;exitY=0.25;exitDx=0;exitDy=0;" edge="1" parent="1" source="6Lz6aEb2j4bTtcunXrUy-2" target="uvMHpVlc2OdN53Bl67iu-12">
          <mxGeometry relative="1" as="geometry">
            <mxPoint x="150" y="-60" as="sourcePoint" />
            <mxPoint x="150" as="targetPoint" />
            <Array as="points">
              <mxPoint x="220" y="-100" />
              <mxPoint x="220" y="-60" />
            </Array>
          </mxGeometry>
        </mxCell>
        <mxCell id="uvMHpVlc2OdN53Bl67iu-21" value="" style="endArrow=none;html=1;rounded=0;entryX=0;entryY=0.5;entryDx=0;entryDy=0;exitX=1;exitY=0.75;exitDx=0;exitDy=0;" edge="1" parent="1" source="6Lz6aEb2j4bTtcunXrUy-2" target="uvMHpVlc2OdN53Bl67iu-13">
          <mxGeometry relative="1" as="geometry">
            <mxPoint x="110" y="-100" as="sourcePoint" />
            <mxPoint x="110" y="-140" as="targetPoint" />
            <Array as="points">
              <mxPoint x="200" y="-80" />
              <mxPoint x="200" />
            </Array>
          </mxGeometry>
        </mxCell>
      </root>
    </mxGraphModel>
  </diagram>
</mxfile>
